<?xml version="1.0" encoding="UTF-8"?>
<svg id="Layer_2" xmlns="http://www.w3.org/2000/svg" viewBox="0 0 949.82 161.7">
  <defs>
    <style>
      .cls-1 {
        fill: #fff;
      }
    </style>
  </defs>
  <g id="Layer_1-2" data-name="Layer_1">
    <g>
      <g>
        <g>
          <path class="cls-1" d="M298.6,22.18v117.35h-21.79v-11.16c-6.85,9.63-18.05,15.54-32.99,12.83-22-4-39.13-22.4-39.86-44.75-.87-26.61,20.53-48.55,46.95-48.55,11.43,0,20.18,5.45,25.9,13.49V22.18h21.79ZM274.94,94.88c0-14.47-10-26.08-23.76-26.08s-24.92,11.7-24.92,26.08,11.34,25.99,24.92,25.99,23.76-11.61,23.76-25.99Z"/>
          <path class="cls-1" d="M307.97,94.88c0-26.08,20.01-47.16,44.65-47.16s44.65,21.08,44.65,47.16-20.01,46.98-44.65,46.98-44.65-21.08-44.65-46.98ZM375.48,94.88c0-13.84-10.27-25.36-22.86-25.36s-22.86,11.79-22.86,25.36,10.45,25.18,22.86,25.18,22.86-11.61,22.86-25.18Z"/>
          <path class="cls-1" d="M427.63,94.7l-32.42-44.57h26.88l18.93,25.99,19.02-25.99h26.88l-32.42,44.57,32.69,44.83h-26.88l-19.29-26.44-19.2,26.44h-26.88l32.69-44.83Z"/>
          <path class="cls-1" d="M493.44,122.03l12.86-5.54c2.68,6.16,12.77,11.61,22.06,11.61s18.93-4.82,18.93-13.22c0-8.93-10.36-11.16-19.65-13.84-18.49-4.64-31.97-11.16-31.97-26.79,0-16.61,15.54-27.06,32.78-27.06,14.38,0,27.24,6.7,33.05,17.24l-12.06,7.06c-3.04-6.43-11.7-10.9-19.92-11.07-10.63-.27-19.74,4.47-19.74,13.58s9.65,10.09,20.72,13.66c16.16,5.18,31.08,11.97,30.81,27.06,0,16.34-16.7,27.33-34.39,26.53-14.47-.54-28.85-8.13-33.49-19.2Z"/>
          <path class="cls-1" d="M597.29,50.22l-.08-28.05h-15.01l.08,28.05h-15.35v15.01h25.31l-9.98,9.98-.07,64.33h15.01l.08-74.31h20.27v-15.01h-20.27Z"/>
          <path class="cls-1" d="M624.61,50.22h15.01v51.23c0,12.78,9.49,23.98,22.22,25.12,14.5,1.29,26.63-10.05,26.63-24.28v-52.07h15l.09,89.31h-15.01l-.09-11.34c-7.67,10.04-20.69,15.78-34.81,12.94-17.11-3.44-29.05-19.07-29.05-36.52v-54.38Z"/>
          <path class="cls-1" d="M802.06,22.18v117.35h-15v-15.18c-6.14,10.57-16.67,17.67-30.75,17.5-24.08-.28-44.46-19.15-46.35-43.16-2.19-27.71,19.67-50.88,46.83-50.88,13.84,0,24.2,7.06,30.28,17.5V22.18h15ZM785.81,94.88c0-18.22-11.43-32.51-28.85-32.51s-31.8,14.56-31.8,32.51,14.56,32.42,31.8,32.42,28.85-14.56,28.85-32.42Z"/>
          <path class="cls-1" d="M817.45,28.43c-.49-5.08,3.23-9.02,8.26-9.02,4.56,0,8.22,3.48,8.22,8.13,0,5.01-4,8.52-9.04,8.09-3.84-.33-7.07-3.36-7.44-7.2ZM833.13,50.22v89.31h-15V50.22h15Z"/>
          <path class="cls-1" d="M842.68,94.88c0-26.08,20.01-47.16,44.66-47.16s44.65,21.08,44.65,47.16-20.01,46.98-44.65,46.98-44.66-21.08-44.66-46.98ZM916.99,94.88c0-17.42-13.13-32.15-29.65-32.15s-29.65,14.83-29.65,32.15,13.48,31.97,29.65,31.97,29.65-14.82,29.65-31.97Z"/>
        </g>
        <g>
          <polygon class="cls-1" points="93.37 0 23.34 40.41 93.37 80.85 93.37 161.7 163.38 121.29 163.38 40.42 93.37 0"/>
          <path class="cls-1" d="M17.51,144.87h0c23.34,13.47,52.52-3.38,52.52-30.33h0c0-12.51-6.67-24.07-17.51-30.32h0C29.18,70.73,0,87.58,0,114.54h0c0,12.51,6.68,24.07,17.51,30.33Z"/>
        </g>
      </g>
      <path class="cls-1" d="M935.17,48.88h-3.18v-1.16h7.57v1.16h-3.2v6.43h-1.18v-6.43ZM942.06,55.31h-1.18v-7.59h1.08l3.47,3.98,3.33-3.98h1.06v7.59h-1.2v-6.07l-3.2,3.86h-.05l-3.3-3.86v6.07Z"/>
    </g>
  </g>
</svg>